<svg width="1004" height="160" viewBox="0 0 1004 160" fill="none" xmlns="http://www.w3.org/2000/svg">
<mask id="path-1-outside-1_158_21" maskUnits="userSpaceOnUse" x="0.761719" y="0.385254" width="1003" height="159" fill="black">
<rect fill="white" x="0.761719" y="0.385254" width="1003" height="159"/>
<path d="M42.3864 9.30933V119.183H86.2986V150.202H5.76172V9.30933H42.3864ZM134.43 79.7558C134.43 85.3616 135.489 90.5314 137.606 95.2652C139.724 99.999 142.589 104.11 146.202 107.598C149.815 111.086 153.988 113.827 158.722 115.82C163.58 117.688 168.688 118.623 174.044 118.623C179.401 118.623 184.446 117.688 189.18 115.82C194.038 113.827 198.274 111.086 201.887 107.598C205.624 104.11 208.551 99.999 210.669 95.2652C212.787 90.5314 213.846 85.3616 213.846 79.7558C213.846 74.1499 212.787 68.9801 210.669 64.2463C208.551 59.5125 205.624 55.4016 201.887 51.9135C198.274 48.4255 194.038 45.7471 189.18 43.8785C184.446 41.8854 179.401 40.8888 174.044 40.8888C168.688 40.8888 163.58 41.8854 158.722 43.8785C153.988 45.7471 149.815 48.4255 146.202 51.9135C142.589 55.4016 139.724 59.5125 137.606 64.2463C135.489 68.9801 134.43 74.1499 134.43 79.7558ZM96.1234 79.7558C96.1234 69.2916 98.0543 59.5748 101.916 50.6055C105.778 41.5116 111.135 33.6012 117.986 26.8742C124.838 20.1472 132.997 14.9151 142.465 11.1779C152.057 7.31615 162.583 5.38525 174.044 5.38525C185.38 5.38525 195.845 7.31615 205.437 11.1779C215.029 14.9151 223.251 20.1472 230.102 26.8742C237.079 33.6012 242.498 41.5116 246.359 50.6055C250.221 59.5748 252.152 69.2916 252.152 79.7558C252.152 90.22 250.221 99.999 246.359 109.093C242.498 118.062 237.079 125.91 230.102 132.637C223.251 139.364 215.029 144.659 205.437 148.52C195.845 152.258 185.38 154.126 174.044 154.126C162.583 154.126 152.057 152.258 142.465 148.52C132.997 144.659 124.838 139.364 117.986 132.637C111.135 125.91 105.778 118.062 101.916 109.093C98.0543 99.999 96.1234 90.22 96.1234 79.7558ZM299.441 82.5587L248.054 9.30933H291.78L317.94 47.8026L343.914 9.30933H387.639L336.066 82.5587V150.202H299.441V82.5587ZM462.665 97.8812L446.221 50.9792L429.778 97.8812H462.665ZM472.382 125.723H420.061L411.652 150.202H372.598L426.227 9.30933H466.215L519.844 150.202H480.79L472.382 125.723ZM572.494 9.30933V119.183H616.406V150.202H535.869V9.30933H572.494ZM681.282 40.3282V150.202H644.657V40.3282H614.573V9.30933H711.366V40.3282H681.282ZM764.281 9.30933V150.202H727.657V9.30933H764.281ZM873.878 40.3282H830.34V63.8726H871.449V94.8915H830.34V119.183H873.878V150.202H793.715V9.30933H873.878V40.3282ZM977.644 45.3734C973.658 42.1345 969.671 39.7676 965.685 38.2727C961.699 36.6533 957.837 35.8435 954.1 35.8435C949.366 35.8435 945.504 36.9647 942.514 39.207C939.524 41.4493 938.03 44.3768 938.03 47.9895C938.03 50.4809 938.777 52.5364 940.272 54.1559C941.767 55.7753 943.698 57.2079 946.065 58.4537C948.556 59.5748 951.297 60.5714 954.286 61.4434C957.401 62.3154 960.453 63.2497 963.443 64.2463C975.402 68.2327 984.122 73.5894 989.603 80.3164C995.209 86.9188 998.012 95.5766 998.012 106.29C998.012 113.515 996.766 120.055 994.275 125.91C991.908 131.765 988.357 136.811 983.624 141.046C979.014 145.157 973.284 148.334 966.432 150.576C959.705 152.943 952.044 154.126 943.449 154.126C925.635 154.126 909.128 148.832 893.93 138.243L909.627 108.719C915.108 113.578 920.527 117.19 925.884 119.557C931.24 121.924 936.535 123.107 941.767 123.107C947.746 123.107 952.169 121.737 955.034 118.996C958.024 116.256 959.519 113.142 959.519 109.653C959.519 107.536 959.145 105.729 958.397 104.235C957.65 102.615 956.404 101.182 954.66 99.9367C952.916 98.5664 950.612 97.3207 947.746 96.1995C945.006 95.0783 941.642 93.8326 937.656 92.4623C932.922 90.9674 928.251 89.3479 923.641 87.6039C919.157 85.7353 915.108 83.3061 911.495 80.3164C908.007 77.3266 905.142 73.5894 902.9 69.1047C900.782 64.4955 899.723 58.7028 899.723 51.7267C899.723 44.7506 900.844 38.4596 903.087 32.8538C905.454 27.1234 908.692 22.265 912.803 18.2786C917.039 14.1677 922.146 10.9911 928.126 8.74875C934.23 6.50642 941.019 5.38525 948.494 5.38525C955.47 5.38525 962.757 6.38184 970.356 8.37502C977.955 10.2436 985.243 13.0465 992.219 16.7837L977.644 45.3734Z"/>
</mask>
<path d="M42.3864 9.30933V119.183H86.2986V150.202H5.76172V9.30933H42.3864ZM134.43 79.7558C134.43 85.3616 135.489 90.5314 137.606 95.2652C139.724 99.999 142.589 104.11 146.202 107.598C149.815 111.086 153.988 113.827 158.722 115.82C163.58 117.688 168.688 118.623 174.044 118.623C179.401 118.623 184.446 117.688 189.18 115.82C194.038 113.827 198.274 111.086 201.887 107.598C205.624 104.11 208.551 99.999 210.669 95.2652C212.787 90.5314 213.846 85.3616 213.846 79.7558C213.846 74.1499 212.787 68.9801 210.669 64.2463C208.551 59.5125 205.624 55.4016 201.887 51.9135C198.274 48.4255 194.038 45.7471 189.18 43.8785C184.446 41.8854 179.401 40.8888 174.044 40.8888C168.688 40.8888 163.58 41.8854 158.722 43.8785C153.988 45.7471 149.815 48.4255 146.202 51.9135C142.589 55.4016 139.724 59.5125 137.606 64.2463C135.489 68.9801 134.43 74.1499 134.43 79.7558ZM96.1234 79.7558C96.1234 69.2916 98.0543 59.5748 101.916 50.6055C105.778 41.5116 111.135 33.6012 117.986 26.8742C124.838 20.1472 132.997 14.9151 142.465 11.1779C152.057 7.31615 162.583 5.38525 174.044 5.38525C185.38 5.38525 195.845 7.31615 205.437 11.1779C215.029 14.9151 223.251 20.1472 230.102 26.8742C237.079 33.6012 242.498 41.5116 246.359 50.6055C250.221 59.5748 252.152 69.2916 252.152 79.7558C252.152 90.22 250.221 99.999 246.359 109.093C242.498 118.062 237.079 125.91 230.102 132.637C223.251 139.364 215.029 144.659 205.437 148.52C195.845 152.258 185.38 154.126 174.044 154.126C162.583 154.126 152.057 152.258 142.465 148.52C132.997 144.659 124.838 139.364 117.986 132.637C111.135 125.91 105.778 118.062 101.916 109.093C98.0543 99.999 96.1234 90.22 96.1234 79.7558ZM299.441 82.5587L248.054 9.30933H291.78L317.94 47.8026L343.914 9.30933H387.639L336.066 82.5587V150.202H299.441V82.5587ZM462.665 97.8812L446.221 50.9792L429.778 97.8812H462.665ZM472.382 125.723H420.061L411.652 150.202H372.598L426.227 9.30933H466.215L519.844 150.202H480.79L472.382 125.723ZM572.494 9.30933V119.183H616.406V150.202H535.869V9.30933H572.494ZM681.282 40.3282V150.202H644.657V40.3282H614.573V9.30933H711.366V40.3282H681.282ZM764.281 9.30933V150.202H727.657V9.30933H764.281ZM873.878 40.3282H830.34V63.8726H871.449V94.8915H830.34V119.183H873.878V150.202H793.715V9.30933H873.878V40.3282ZM977.644 45.3734C973.658 42.1345 969.671 39.7676 965.685 38.2727C961.699 36.6533 957.837 35.8435 954.1 35.8435C949.366 35.8435 945.504 36.9647 942.514 39.207C939.524 41.4493 938.03 44.3768 938.03 47.9895C938.03 50.4809 938.777 52.5364 940.272 54.1559C941.767 55.7753 943.698 57.2079 946.065 58.4537C948.556 59.5748 951.297 60.5714 954.286 61.4434C957.401 62.3154 960.453 63.2497 963.443 64.2463C975.402 68.2327 984.122 73.5894 989.603 80.3164C995.209 86.9188 998.012 95.5766 998.012 106.29C998.012 113.515 996.766 120.055 994.275 125.91C991.908 131.765 988.357 136.811 983.624 141.046C979.014 145.157 973.284 148.334 966.432 150.576C959.705 152.943 952.044 154.126 943.449 154.126C925.635 154.126 909.128 148.832 893.93 138.243L909.627 108.719C915.108 113.578 920.527 117.19 925.884 119.557C931.24 121.924 936.535 123.107 941.767 123.107C947.746 123.107 952.169 121.737 955.034 118.996C958.024 116.256 959.519 113.142 959.519 109.653C959.519 107.536 959.145 105.729 958.397 104.235C957.65 102.615 956.404 101.182 954.66 99.9367C952.916 98.5664 950.612 97.3207 947.746 96.1995C945.006 95.0783 941.642 93.8326 937.656 92.4623C932.922 90.9674 928.251 89.3479 923.641 87.6039C919.157 85.7353 915.108 83.3061 911.495 80.3164C908.007 77.3266 905.142 73.5894 902.9 69.1047C900.782 64.4955 899.723 58.7028 899.723 51.7267C899.723 44.7506 900.844 38.4596 903.087 32.8538C905.454 27.1234 908.692 22.265 912.803 18.2786C917.039 14.1677 922.146 10.9911 928.126 8.74875C934.23 6.50642 941.019 5.38525 948.494 5.38525C955.47 5.38525 962.757 6.38184 970.356 8.37502C977.955 10.2436 985.243 13.0465 992.219 16.7837L977.644 45.3734Z" stroke="#FFFD38" stroke-width="10" mask="url(#path-1-outside-1_158_21)"/>
</svg>
