<svg width="826" height="330" viewBox="0 0 826 330" fill="none" xmlns="http://www.w3.org/2000/svg">
<path d="M30.7 221.321L30.4 302.921L66.9 297.421L66.7 321.821L0 329.421V229.921L30.7 221.321ZM107.2 258.421C107.2 263.121 108 267.221 109.7 270.921C111.4 274.621 113.8 277.621 116.7 280.121C119.7 282.621 123.1 284.321 127 285.521C131 286.521 135.2 286.621 139.7 286.021C144.1 285.321 148.3 283.921 152.3 281.621C156.4 279.221 159.9 276.221 163 272.621C166.1 268.921 168.6 264.821 170.5 260.221C172.3 255.621 173.3 250.721 173.4 245.621C173.5 240.521 172.7 235.921 171 232.021C169.3 228.121 166.9 224.921 163.8 222.521C160.8 220.121 157.3 218.521 153.3 217.821C149.4 217.021 145.2 217.121 140.7 218.221C136.2 219.321 131.9 221.221 127.9 223.921C123.9 226.421 120.4 229.521 117.4 233.221C114.3 236.821 111.9 240.821 110.1 245.221C108.3 249.521 107.4 254.021 107.3 258.721L107.2 258.421ZM75.3 264.721C75.3 256.421 77 248.321 80.3 240.421C83.6 232.321 88.1 224.821 93.9 217.921C99.7 210.921 106.6 204.721 114.5 199.321C122.6 193.821 131.4 189.621 141 186.921C150.5 184.221 159.2 183.421 167.2 184.721C175.2 185.921 182 188.821 187.6 193.621C193.3 198.421 197.7 204.721 200.8 212.521C203.9 220.321 205.3 229.221 205.1 239.121C204.9 249.021 203.1 258.721 199.8 267.821C196.4 276.821 191.8 284.821 185.9 291.921C180.1 298.921 173.2 304.621 165.2 309.021C157.2 313.321 148.5 315.921 139.1 316.921C129.7 317.921 120.9 317.321 113 315.021C105.2 312.721 98.5 309.121 92.8 304.421C87.2 299.721 82.8 294.021 79.6 287.321C76.5 280.621 74.9 273.121 75 264.721H75.3ZM244.6 234.121L203 173.021L239.6 162.721L260.7 195.721L283.3 150.421L319.9 140.121L275 228.121L273.5 298.221L243.2 301.721L244.6 234.121ZM380.1 225.521L367.8 174.221L352.7 230.321L380.1 225.521ZM387.3 256.721L343.9 262.921L336.2 291.121L303.8 294.821L352.3 131.221L385.8 121.821L425.8 280.921L393.4 284.621L387.2 256.721H387.3ZM474.9 96.8213L470.6 236.521L507.1 231.021L505.8 271.821L439.1 279.421L444.2 105.421L474.9 96.8213ZM564.6 114.021L559.5 265.621L529.2 269.121L534 121.521L508.8 127.621L510.1 86.9213L591.2 64.2213L589.7 107.921L564.6 114.021ZM635.6 51.7213L628.3 257.821L598 261.321L605 60.4213L635.7 51.8213L635.6 51.7213ZM725.6 74.7213L689.2 83.6213L687.9 119.621L722.2 112.221L720.4 160.921L686.2 167.021L684.8 204.121L721 198.621L719.2 247.421L652.8 255.021L660.4 44.8213L727.6 26.0213L725.8 74.8213L725.6 74.7213ZM812 62.0213C808.9 57.4213 805.7 54.2213 802.5 52.6213C799.3 50.7213 796.1 50.2213 793 51.0213C789 52.0213 785.7 54.6213 783.1 58.9213C780.5 63.2213 779 68.3213 778.8 74.2213C778.6 78.3213 779.1 81.5213 780.3 83.9213C781.4 86.3213 783 88.3213 784.9 89.9213C786.9 91.3213 789.1 92.4213 791.6 93.3213C794.1 94.2213 796.6 95.2213 799.1 96.3213C808.8 100.821 815.7 108.321 819.8 118.721C824 129.021 825.8 143.221 825 161.421C824.5 173.621 823 184.921 820.6 195.121C818.2 205.321 814.9 214.221 810.7 221.821C806.6 229.221 801.7 235.021 795.8 239.421C790.1 244.021 783.6 246.621 776.5 247.421C761.7 249.021 748.4 242.021 736.5 226.621L751.3 177.521C755.5 184.621 759.8 189.721 764.1 192.921C768.4 196.121 772.7 197.421 777.1 196.721C782.1 196.021 785.8 193.221 788.4 188.321C791.1 183.421 792.5 178.021 792.7 172.221C792.8 168.721 792.7 165.821 792.1 163.421C791.6 160.821 790.6 158.621 789.3 156.821C787.9 154.821 786.1 153.121 783.8 151.721C781.6 150.321 778.9 148.721 775.6 147.121C771.8 145.421 768 143.521 764.2 141.321C760.6 139.021 757.4 135.721 754.5 131.521C751.8 127.321 749.6 121.821 748 115.021C746.5 108.021 746 98.9213 746.4 87.8213C746.8 76.7213 748.2 66.4213 750.4 56.9213C752.7 47.2213 755.7 38.7213 759.4 31.4213C763.2 23.8213 767.7 17.5213 772.8 12.4213C778.1 7.32131 783.8 3.82131 790.1 2.12131C795.9 0.421306 802 0.321306 808.2 1.92131C814.4 3.22131 820.4 6.22131 826 10.9213L811.9 62.1213L812 62.0213Z" fill="#FFFEF6"/>
</svg>
